<svg width="160" height="35" viewBox="0 0 160 35" fill="none" xmlns="http://www.w3.org/2000/svg">
<path fill-rule="evenodd" clip-rule="evenodd" d="M1.16667 35H0V0H1.16667V35ZM5.31417 35H4.1475V0H5.31417V35ZM9.51417 26.6667H8.3475V0H9.51417V26.6667ZM125.386 25.875L123.532 18.945L121.677 25.875H120.542L118.145 17.2842H119.305L121.172 24.4458L123.103 17.2842H123.973L125.903 24.4458L127.757 17.2842H128.917L126.52 25.875H125.383H125.386ZM24.12 21.575C24.095 21.0169 24.1803 20.4593 24.3708 19.9341C24.5613 19.4089 24.8534 18.9264 25.2304 18.5141C25.6074 18.1018 26.062 17.7678 26.568 17.5312C27.0741 17.2946 27.6219 17.1599 28.18 17.135C28.2689 17.1311 28.3581 17.1311 28.4475 17.135C29.0799 17.1256 29.7044 17.2766 30.2625 17.5741C30.8207 17.8715 31.2943 18.3056 31.6392 18.8358L30.7567 19.3358C30.5018 18.9562 30.1586 18.6441 29.7566 18.4263C29.3545 18.2086 28.9055 18.0918 28.4483 18.0858C27.5817 18.0909 26.7526 18.4399 26.1432 19.056C25.5337 19.6721 25.1939 20.5051 25.1983 21.3717C25.1983 21.4406 25.2008 21.5094 25.2058 21.5783C25.1492 22.4455 25.4393 23.2996 26.0124 23.9529C26.5854 24.6061 27.3945 25.0049 28.2617 25.0617C28.3239 25.0656 28.3861 25.0678 28.4483 25.0683C28.9061 25.0652 29.3561 24.9496 29.7586 24.7316C30.1611 24.5136 30.5039 24.2 30.7567 23.8183L31.6525 24.3183C31.3035 24.8473 30.8272 25.2802 30.2674 25.5773C29.7075 25.8743 29.082 26.0259 28.4483 26.0183C27.8898 26.0288 27.3346 25.9291 26.8147 25.7248C26.2947 25.5206 25.8201 25.2158 25.418 24.828C25.0159 24.4401 24.6942 23.9768 24.4714 23.4645C24.2485 22.9523 24.1288 22.4011 24.1192 21.8425C24.1158 21.7519 24.1161 21.6628 24.12 21.575ZM46.3333 25.8642V17.2725H49.7125C50.3991 17.2551 51.0644 17.5113 51.5622 17.9845C52.0599 18.4577 52.3493 19.1093 52.3667 19.7958C52.384 20.4824 52.1279 21.1478 51.6547 21.6455C51.1815 22.1433 50.5299 22.4326 49.8433 22.45C49.7992 22.45 49.7558 22.45 49.7125 22.45H47.3792V25.8667H46.3333V25.8642ZM51.2658 19.8642C51.2805 19.4446 51.1278 19.0364 50.8416 18.7293C50.5553 18.4222 50.1587 18.2414 49.7392 18.2267C49.6886 18.2267 49.6381 18.2267 49.5875 18.2267H47.3808V21.5H49.5883C50.0073 21.5248 50.4191 21.3823 50.733 21.1037C51.0469 20.825 51.2374 20.4332 51.2625 20.0142C51.2658 19.9631 51.2658 19.9119 51.2625 19.8608L51.2658 19.8642ZM56.2658 25.8642V17.2725H57.3133V25.8633H56.2658V25.8642ZM63.885 25.8642V18.2258H61.2183V17.2725H67.6017V18.2258H64.9258V25.8642H63.8842H63.885ZM82.34 25.8642V17.2725H83.3875V24.9108H87.2967V25.8642H82.3392H82.34ZM99.155 25.8642V18.2258H96.4917V17.2725H102.874V18.2258H100.2V25.8642H99.1542H99.155ZM106.445 21.575C106.445 19.0375 108.123 17.1317 110.621 17.1317C111.167 17.1279 111.708 17.2318 112.214 17.4373C112.72 17.6428 113.18 17.9459 113.569 18.3294C113.957 18.7128 114.267 19.169 114.479 19.672C114.691 20.175 114.802 20.7149 114.806 21.2608C114.806 21.3658 114.806 21.4708 114.797 21.575C114.872 22.6749 114.508 23.7598 113.784 24.5912C113.06 25.4225 112.035 25.9323 110.935 26.0083C110.83 26.0158 110.726 26.0192 110.621 26.0183C108.121 26.0183 106.439 24.1117 106.439 21.575H106.445ZM113.711 21.575C113.711 19.5658 112.5 18.085 110.621 18.085C108.728 18.085 107.53 19.5667 107.53 21.575C107.53 23.5833 108.728 25.065 110.621 25.065C112.494 25.065 113.704 23.5708 113.704 21.575H113.71H113.711ZM132.622 25.8642V17.2725H138.135V18.2258H133.667V20.995H138.044V21.9483H133.667V24.9108H138.132V25.8642H132.62H132.622ZM152 24.6525L152.618 23.8408C152.947 24.2222 153.353 24.5287 153.81 24.7399C154.267 24.951 154.764 25.0619 155.268 25.065C156.768 25.065 157.248 24.2408 157.248 23.5842C157.248 21.3683 152.265 22.5925 152.265 19.5275C152.265 18.1108 153.502 17.1442 155.154 17.1442C155.709 17.1206 156.262 17.2152 156.777 17.4217C157.292 17.6281 157.758 17.9417 158.142 18.3417L157.512 19.1275C157.204 18.7915 156.827 18.5256 156.407 18.3478C155.987 18.1699 155.533 18.0843 155.077 18.0967C154.882 18.0672 154.682 18.0766 154.49 18.1244C154.297 18.1722 154.116 18.2573 153.957 18.375C153.798 18.4927 153.663 18.6407 153.561 18.8104C153.459 18.9801 153.391 19.1683 153.362 19.3642C153.357 19.3967 153.352 19.4292 153.35 19.4617C153.35 21.3942 158.332 20.2858 158.332 23.4925C158.332 24.7425 157.498 26.0167 155.229 26.0167C154.624 26.0402 154.021 25.9302 153.463 25.6944C152.904 25.4587 152.405 25.1029 152 24.6525ZM39.3183 17.2725H38.0192L34.6383 25.8633H35.8333L36.5833 23.9567L36.8867 23.0075L38.675 18.3833L40.4542 23.0075L40.77 23.9608L41.5142 25.8675H42.7125L39.3183 17.2725ZM75.3125 17.2725H74.0142L70.6333 25.8633H71.8333L72.5775 23.9567L72.88 23.0075L74.6667 18.3833L76.445 23.0075L76.7608 23.9608L77.505 25.8675H78.7033L75.3125 17.2725ZM146.146 22.36C146.766 22.3157 147.343 22.0281 147.752 21.5597C148.161 21.0914 148.368 20.4804 148.328 19.86C148.345 19.5115 148.288 19.1634 148.161 18.8386C148.033 18.5137 147.839 18.2194 147.59 17.975C147.341 17.7306 147.043 17.5416 146.716 17.4204C146.389 17.2991 146.04 17.2485 145.692 17.2717H142.312V25.8633H143.357V18.2258H145.566C145.995 18.2355 146.403 18.4128 146.703 18.7196C147.003 19.0265 147.171 19.4387 147.171 19.8679C147.171 20.2971 147.003 20.7093 146.703 21.0162C146.403 21.3231 145.995 21.5003 145.566 21.51H145.012V22.45H145.035L147.179 25.8667H148.417L146.146 22.36Z" fill="#1B1B1B"/>
</svg>
