<svg width="139" height="50" viewBox="0 0 139 50" fill="none" xmlns="http://www.w3.org/2000/svg">
<path d="M4.04281 29.4847L3.08889 30.8629V36.8277L0 35.5624V16.2222L3.08889 17.4648V25.8923L7.1317 19.0916L10.2206 20.3342L5.92794 27.2253L10.2206 39.6971L7.04085 38.4092L4.04281 29.4847Z" fill="#1B1B1B"/>
<path d="M20.3504 29.2136V31.7215C20.3504 34.8169 18.8286 35.9014 15.7398 34.6587L14.2862 34.0713V41.3465L11.1973 40.1038V20.741L15.7398 22.5711C18.8286 23.8137 20.3504 26.1183 20.3504 29.2136ZM14.2862 24.7401V31.2923L15.7398 31.8797C16.7164 32.2864 17.2615 32.0604 17.2615 30.6596V27.745C17.2615 26.3668 16.7391 25.7116 15.7398 25.3049L14.2862 24.7401Z" fill="#1B1B1B"/>
<path d="M21.7131 44.3289V24.9661L24.802 26.2087V33.4839L26.2556 34.0714C29.3445 35.314 30.8662 37.6186 30.8662 40.7139V43.2218C30.8662 46.3172 29.3445 47.4017 26.2556 46.159L21.7131 44.3289ZM26.2556 43.4026C27.2323 43.8093 27.7774 43.5833 27.7774 42.1825V39.2679C27.7774 37.8897 27.255 37.2345 26.2556 36.8278L24.802 36.2404V42.7925L26.2556 43.4026ZM32.6378 48.7347V29.3718L35.7267 30.6145V49.9774L32.6378 48.7347Z" fill="#1B1B1B"/>
<path d="M42.4495 32.038L40.0875 48.8025L37.2711 49.9774L40.2919 29.3719L44.8571 27.4514L47.8551 45.549L44.7662 46.8369L42.4495 32.038Z" fill="#1B1B1B"/>
<path d="M49.1724 45.0518L49.1951 25.689L52.2613 24.4011V31.6763L53.7148 31.0663C56.781 29.7784 58.28 30.8403 58.28 33.9357V36.4436C58.28 39.5389 56.781 41.8661 53.6921 43.154L49.1724 45.0518ZM53.6921 40.3975C54.6688 39.9908 55.1911 39.3356 55.1911 37.9348V35.0202C55.1911 33.642 54.6688 33.416 53.6921 33.8227L52.2385 34.4328V40.9849L53.6921 40.3975Z" fill="#1B1B1B"/>
<path d="M59.0751 40.9172C59.393 40.0587 59.4158 39.3583 59.4158 38.4319V35.4495C59.4158 33.4387 59.9154 31.7442 61.4599 30.4789C60.0971 30.4111 59.4612 29.3718 59.4612 27.3836V25.8698C59.4612 22.8874 60.8239 20.854 64.0037 19.5209L68.637 17.5779L68.6143 36.9407L65.5481 38.2286V30.3434L64.4806 30.7952C63.0952 31.3827 62.4819 32.309 62.4819 34.0939V37.1441C62.4819 38.7256 62.3684 39.0645 62.2094 39.6294L59.0751 40.9172ZM64.0945 22.2322C63.0043 22.6841 62.5274 23.4974 62.5274 24.8757V26.7735C62.5274 28.3099 63.2314 28.5359 64.3671 28.0388L65.5708 27.5417V21.5996L64.0945 22.2322Z" fill="#1B1B1B"/>
<path d="M73.2249 22.8197C73.452 22.0967 73.5429 21.5545 73.6337 20.8541C73.7246 20.0633 73.8154 19.1369 73.8154 17.3746V15.409L76.4046 14.3245V21.5093L76.927 21.2833V23.9494L75.9731 24.3561V22.5938L73.7246 23.5201V25.2598L72.7706 25.6665V23.0005L73.2249 22.8197ZM75.3371 15.6575L74.7012 15.9286V18.2332C74.7012 18.7754 74.633 19.8599 74.5649 20.4248C74.4968 21.0574 74.3605 21.7126 74.2015 22.413L75.3371 21.9386V15.6575Z" fill="#1B1B1B"/>
<path d="M81.038 18.5042C81.038 18.9787 81.0607 19.5661 80.7654 20.1535C80.561 20.5376 80.1295 21.0347 79.4027 21.351C78.6532 21.6673 78.2443 21.4866 78.0399 21.2832C77.7447 20.9443 77.7674 20.3343 77.7674 19.8598V15.567C77.7674 15.2281 77.7447 14.7084 78.0399 14.1436C78.1762 13.8725 78.585 13.285 79.4027 12.9461C80.2203 12.6072 80.6291 12.8558 80.7654 13.0139C81.0607 13.3302 81.038 13.8725 81.038 14.2114V18.5042ZM79.8569 14.008C79.7206 13.8499 79.5389 13.8951 79.38 13.9403C79.2437 14.008 79.0393 14.121 78.903 14.3921C78.8349 14.5729 78.8349 14.731 78.8349 14.8892V19.8598C78.8349 19.9954 78.8576 20.1761 78.903 20.2891C79.0393 20.4473 79.221 20.4021 79.38 20.3569C79.5162 20.2891 79.7206 20.1761 79.8569 19.905C79.9251 19.7243 79.9251 19.5661 79.9251 19.408V14.4373C79.9478 14.3018 79.9251 14.121 79.8569 14.008Z" fill="#1B1B1B"/>
<path d="M85.8303 18.5267V13.1494L85.853 12.5394L85.8075 12.562L84.7855 18.956L84.2404 19.1819L83.2183 13.6239L83.1729 13.6465L83.1956 14.2339V19.6112L82.2417 20.0179V11.9293L83.6953 11.3419L84.4675 15.8381L84.4902 16.2674L84.5584 16.2448L84.5811 15.7929L85.3533 10.6641L86.8069 10.0767V18.1652L85.8303 18.5267Z" fill="#1B1B1B"/>
<path d="M90.1456 16.7419L90.0093 16.3127C89.8958 16.5612 89.7141 16.7871 89.5778 16.9453C89.3734 17.1712 89.1463 17.3068 88.8964 17.4198C88.5558 17.5553 88.3059 17.5779 88.1015 17.352C87.8744 17.1034 87.8517 16.7193 87.8517 16.4482V15.2733C87.8517 14.6633 87.9198 14.2566 88.5103 13.3981C88.8737 12.901 89.1917 12.4943 89.9412 11.6583V10.1897C89.9412 10.0542 89.9185 9.89603 89.8731 9.80566C89.7822 9.67009 89.6232 9.69269 89.4643 9.76047C89.3053 9.82825 89.169 9.91862 89.0554 10.122C88.9873 10.2801 88.9873 10.4383 88.9873 10.5738V11.8617L87.8971 12.3136V11.2065C87.8971 10.8224 87.8971 10.3479 88.2378 9.78306C88.3741 9.55712 88.7602 9.06006 89.487 8.76634C90.3273 8.42744 90.668 8.67597 90.7361 8.74375C91.0314 9.01487 91.0314 9.55712 91.0314 9.91862V16.3578L90.1456 16.7419ZM89.01 14.1437C88.9873 14.2566 88.9192 14.4826 88.9192 14.9796V15.6348C88.9192 15.9738 88.9419 16.1093 88.9873 16.1997C89.0554 16.3353 89.1236 16.3353 89.2826 16.2901C89.5097 16.1997 89.646 16.0189 89.7595 15.8382C89.9185 15.5219 89.9412 15.2959 89.9412 15.0926V12.788C89.7141 13.0366 89.1463 13.7822 89.01 14.1437Z" fill="#1B1B1B"/>
<path d="M75.0645 34.1844V30.3208L74.1106 30.7275V34.5685L73.0204 35.0203V26.9318L74.1106 26.4799V29.8012L75.0645 29.3945V26.0732L76.1547 25.6213V33.7099L75.0645 34.1844Z" fill="#1B1B1B"/>
<path d="M80.629 29.8689C80.629 30.3434 80.6517 30.9309 80.3565 31.5183C80.1521 31.9024 79.7205 32.3994 78.9937 32.7158C78.2669 33.0321 77.8354 32.8513 77.631 32.648C77.3357 32.3091 77.3584 31.699 77.3584 31.2246V26.9318C77.3584 26.5928 77.3357 26.0732 77.631 25.5084C77.7673 25.2372 78.1761 24.6498 78.9937 24.3109C79.8114 23.972 80.2202 24.2205 80.3565 24.3787C80.6517 24.695 80.629 25.2372 80.629 25.5761V29.8689ZM79.448 25.3728C79.3117 25.2146 79.13 25.2598 78.971 25.305C78.8347 25.3728 78.6303 25.4858 78.4941 25.7569C78.4259 25.9376 78.4259 26.0958 78.4259 26.2539V31.2246C78.4259 31.3601 78.4486 31.5409 78.4941 31.6539C78.6303 31.812 78.812 31.7668 78.971 31.7216C79.1073 31.6539 79.3117 31.5409 79.448 31.2698C79.5161 31.089 79.5161 30.9309 79.5161 30.7727V25.8021C79.5388 25.6439 79.5161 25.4858 79.448 25.3728Z" fill="#1B1B1B"/>
<path d="M81.8328 23.2716L83.6043 22.526C83.945 22.3905 84.422 22.3001 84.7172 22.7068C84.9216 22.9779 84.9443 23.2716 84.9443 23.6105V24.2206C84.9443 24.3787 84.9216 24.921 84.7172 25.3503C84.6264 25.531 84.422 25.8247 84.1267 26.0281C84.3538 26.0281 84.6491 26.0959 84.7854 26.2766C84.9898 26.5025 85.0125 26.9544 85.0125 27.3159V28.3326C85.0125 28.6941 84.9898 29.146 84.7399 29.5979C84.3992 30.2305 83.9223 30.5016 83.3545 30.7502L81.8555 31.3828L81.8328 23.2716ZM83.2636 25.9151C83.3999 25.8699 83.6043 25.7795 83.7406 25.5762C83.8769 25.3728 83.8769 25.0791 83.8769 25.0565V24.0172C83.8769 23.8591 83.8314 23.6331 83.7406 23.5654C83.6725 23.5202 83.4453 23.5202 83.3091 23.5879L82.9457 23.7461V26.0733L83.2636 25.9151ZM83.2636 29.8464C83.4226 29.7786 83.627 29.6883 83.7633 29.4623C83.8996 29.259 83.8996 28.9879 83.8996 28.7167V27.4515C83.8996 27.2707 83.8996 26.9996 83.7406 26.864C83.5362 26.6833 83.3318 26.7963 83.1501 26.864L82.9002 26.9544V29.982L83.2636 29.8464Z" fill="#1B1B1B"/>
<path d="M86.1255 21.5092L87.2157 21.0573V24.356L87.6926 24.1527C88.056 24.0171 88.5784 23.859 88.9191 24.1527C89.2371 24.4238 89.2825 25.0564 89.2825 25.3727V26.5476C89.2825 27.1802 89.169 27.7225 88.7828 28.197C88.4649 28.6036 88.0788 28.7844 87.7381 28.92L86.1255 29.5752V21.5092ZM87.5337 28.1292C87.6245 28.084 87.8971 27.9936 88.0333 27.7451C88.1469 27.5643 88.1696 27.3384 88.1696 27.0221V25.915C88.1696 25.4179 88.1242 25.2598 88.0788 25.192C87.9425 24.9661 87.6926 25.0338 87.5109 25.1242L87.2157 25.2372V28.2647L87.5337 28.1292ZM89.6005 28.1518V20.0632L90.6907 19.6113V27.6999L89.6005 28.1518Z" fill="#1B1B1B"/>
<path d="M93.598 18.3913L94.6882 17.9395L93.7342 22.0741L94.8244 25.9828L93.7342 26.4347L93.1891 23.8138L92.644 26.8866L91.5538 27.3385L92.644 22.526L91.6674 19.2047L92.7576 18.7528L93.1664 21.0348L93.598 18.3913Z" fill="#1B1B1B"/>
<path d="M97.6633 24.7627V16.6741L100.298 15.5896V16.4934L98.7535 17.126V24.3108L97.6633 24.7627Z" fill="#1B1B1B"/>
<path d="M104.432 19.9502C104.432 20.4247 104.454 21.0121 104.159 21.5996C103.955 21.9837 103.523 22.4807 102.796 22.7971C102.047 23.1134 101.638 22.9326 101.434 22.7293C101.138 22.3904 101.161 21.7803 101.161 21.3059V17.0131C101.161 16.6741 101.138 16.1545 101.434 15.5896C101.57 15.3185 101.979 14.7311 102.796 14.3922C103.614 14.0533 104.023 14.3018 104.159 14.46C104.454 14.7763 104.432 15.3185 104.432 15.6574V19.9502ZM103.273 15.4541C103.137 15.2959 102.955 15.3411 102.796 15.3863C102.66 15.4541 102.456 15.5671 102.319 15.8382C102.251 16.0189 102.251 16.1771 102.251 16.3352V21.3059C102.251 21.4414 102.274 21.6222 102.319 21.7351C102.456 21.8933 102.637 21.8481 102.796 21.8029C102.933 21.7351 103.137 21.6222 103.273 21.3511C103.342 21.1703 103.342 21.0121 103.342 20.854V15.8834C103.342 15.7478 103.342 15.5671 103.273 15.4541Z" fill="#1B1B1B"/>
<path d="M105.635 23.8363V13.3753L106.589 12.9686L106.726 13.285C106.794 13.1042 106.93 12.9686 107.044 12.8105C107.248 12.6071 107.407 12.4716 107.68 12.3586C108.316 12.0875 108.588 12.336 108.724 12.6071C108.793 12.7879 108.861 13.0816 108.861 13.6916V18.5493C108.861 19.0012 108.838 19.6112 108.656 20.0179C108.429 20.5602 108.066 20.8087 107.748 20.9217C107.452 21.0572 107.203 21.0572 106.998 20.9668C106.862 20.8991 106.771 20.8087 106.726 20.6957V23.3844L105.635 23.8363ZM107.68 13.5561C107.611 13.4431 107.498 13.3979 107.316 13.4883C107.157 13.5561 106.953 13.6916 106.839 13.9628C106.726 14.2113 106.726 14.4372 106.726 14.618V19.2045C106.726 19.3853 106.748 19.679 106.817 19.8823C106.885 20.0179 107.021 20.2438 107.339 20.1083C107.543 20.0179 107.634 19.9049 107.702 19.7016C107.725 19.6112 107.77 19.4305 107.77 18.8882V14.0983C107.77 13.9176 107.77 13.6916 107.68 13.5561Z" fill="#1B1B1B"/>
<path d="M112.108 18.7753V15.3411L112.177 14.3243L111.155 18.0297V19.182L110.064 19.6339V11.5453L111.155 11.0934V14.5955L111.086 15.4766L112.131 11.7712V10.6867L113.221 10.2349V18.3234L112.108 18.7753Z" fill="#1B1B1B"/>
<path d="M117.264 11.8391C117.173 12.0651 116.969 12.3814 116.606 12.6525V12.6977C116.878 12.7203 117.128 12.8107 117.287 12.9688C117.491 13.2399 117.514 13.6918 117.514 14.0533V14.9119C117.514 15.2734 117.491 15.7252 117.242 16.1771C116.878 16.9001 116.31 17.2164 115.879 17.3972C115.493 17.5553 115.038 17.6683 114.652 17.4198C114.289 17.1713 114.244 16.6968 114.244 16.2901V14.9571L115.334 14.5052V15.7252C115.334 16.1093 115.379 16.2675 115.447 16.3579C115.561 16.4934 115.743 16.4708 115.879 16.4031C116.061 16.3353 116.242 16.2223 116.333 15.9964C116.379 15.906 116.424 15.7252 116.424 15.2734V14.3696C116.424 14.1211 116.401 13.8274 116.265 13.6918C116.061 13.4659 115.674 13.624 115.47 13.6918L114.948 13.8952V12.9688L115.629 12.6977C116.333 12.404 116.379 11.8617 116.379 11.5906V10.4157C116.379 10.2576 116.379 10.0994 116.288 10.009C116.22 9.91865 116.083 9.89606 115.879 9.98643C115.674 10.0768 115.538 10.235 115.47 10.3479C115.379 10.5061 115.379 10.7094 115.379 10.845V12.1328L114.334 12.5621V11.4324C114.334 11.0935 114.357 10.5739 114.63 10.0768C114.834 9.7379 115.22 9.21824 115.924 8.94712C116.56 8.69858 116.946 8.76637 117.173 9.03749C117.423 9.30862 117.423 9.71531 117.423 10.1446V10.845C117.423 11.4324 117.31 11.7487 117.264 11.8391Z" fill="#1B1B1B"/>
<path d="M121.829 12.743C121.829 13.2174 121.852 13.8049 121.557 14.3923C121.352 14.7764 120.921 15.2735 120.194 15.5898C119.445 15.9061 119.036 15.7253 118.831 15.522C118.536 15.1831 118.559 14.5731 118.559 14.0986V9.80578C118.559 9.46687 118.536 8.94722 118.831 8.38237C118.968 8.11125 119.376 7.52381 120.194 7.1849C121.012 6.846 121.421 7.09453 121.557 7.25268C121.852 7.569 121.829 8.11125 121.829 8.45016V12.743ZM120.648 8.24681C120.512 8.08865 120.33 8.13384 120.171 8.17903C120.035 8.24681 119.831 8.35978 119.694 8.6309C119.626 8.81166 119.626 8.96981 119.626 9.12797V14.0986C119.626 14.2342 119.649 14.4149 119.694 14.5279C119.831 14.686 120.012 14.6408 120.171 14.5957C120.308 14.5279 120.512 14.4149 120.648 14.1438C120.716 13.963 120.716 13.8049 120.716 13.6467V8.67609C120.739 8.54053 120.716 8.35978 120.648 8.24681Z" fill="#1B1B1B"/>
<path d="M125.077 13.3981V9.53457L124.123 9.94126V13.8048L123.033 14.2567V6.1681L124.123 5.71623V9.03751L125.077 8.63082V5.30954L126.168 4.85767V12.9462L125.077 13.3981Z" fill="#1B1B1B"/>
<path d="M128.257 12.0876V4.90276L127.031 5.39982V4.47348L130.551 3.00488V3.93123L129.324 4.42829V11.6131L128.257 12.0876Z" fill="#1B1B1B"/>
<path d="M134.616 7.4334C134.616 7.90787 134.639 8.49531 134.344 9.08274C134.139 9.46684 133.708 9.9639 132.981 10.2802C132.232 10.5965 131.823 10.4158 131.618 10.2124C131.323 9.87352 131.346 9.26349 131.346 8.78902V4.49621C131.346 4.1573 131.323 3.63765 131.618 3.0728C131.755 2.80168 132.164 2.21424 132.981 1.87533C133.799 1.53643 134.208 1.78496 134.344 1.94311C134.639 2.25943 134.616 2.80168 134.616 3.14058V7.4334ZM133.435 2.93724C133.299 2.77908 133.117 2.82427 132.958 2.86946C132.822 2.93724 132.618 3.05021 132.481 3.32133C132.413 3.50208 132.413 3.66024 132.413 3.8184V8.78902C132.413 8.92459 132.436 9.10534 132.481 9.21831C132.618 9.37646 132.799 9.33127 132.958 9.28609C133.095 9.21831 133.299 9.10534 133.435 8.83421C133.504 8.65346 133.504 8.49531 133.504 8.33715V3.36652C133.526 3.23096 133.504 3.0728 133.435 2.93724Z" fill="#1B1B1B"/>
<path d="M135.82 0.858545L137.592 0.112951C137.933 -0.022612 138.41 -0.112987 138.705 0.293701C138.909 0.564826 138.932 0.858545 138.932 1.19745V1.80748C138.932 1.96564 138.909 2.50789 138.705 2.93717C138.614 3.11792 138.41 3.41164 138.114 3.61498C138.341 3.61498 138.637 3.68277 138.773 3.86352C138.977 4.08945 139 4.54133 139 4.90283V5.91955C139 6.28105 138.977 6.73292 138.728 7.1848C138.387 7.81742 137.91 8.08855 137.342 8.33708L135.843 8.96971L135.82 0.858545ZM137.274 3.50202C137.41 3.45683 137.615 3.36645 137.751 3.16311C137.887 2.95976 137.887 2.66605 137.887 2.64345V1.58155C137.887 1.42339 137.842 1.19745 137.751 1.12967C137.683 1.08448 137.456 1.08448 137.319 1.15226L136.956 1.31042V3.63758L137.274 3.50202ZM137.274 7.43333C137.433 7.36555 137.637 7.27517 137.774 7.04924C137.91 6.84589 137.91 6.57477 137.91 6.30364V5.03839C137.91 4.85764 137.91 4.58652 137.751 4.45095C137.546 4.2702 137.342 4.38317 137.16 4.45095L136.911 4.54133V7.56889L137.274 7.43333Z" fill="#1B1B1B"/>
</svg>
