<svg width="165" height="22" viewBox="0 0 165 22" fill="none" xmlns="http://www.w3.org/2000/svg">
<path d="M96.2629 6.57208C97.9722 6.57208 99.408 6.73255 99.408 7.69535H102.918C102.872 5.49465 100.114 4.18799 96.2629 4.18799C90.9071 4.18799 88.9471 6.29699 88.9471 9.71266V11.5236C88.9015 15.2373 90.7703 17.0025 96.5592 17.0025C98.8154 17.0025 101.505 16.6357 102.918 16.246V10.217H96.4452V12.2114H99.4308V14.1828C98.9522 14.3891 97.4252 14.733 96.5364 14.733C93.8471 14.733 92.6848 14.2057 92.6848 11.5695V9.96482C92.6848 7.37442 93.8015 6.57208 96.2629 6.57208Z" fill="#0C54BD"/>
<path d="M33.4292 4.60059H36.8022L39.2864 13.4951H39.4915L42.4998 4.60059H45.9412L48.9724 13.4951H49.1547L51.6389 4.60059H54.9891L51.2058 16.5898H47.2175L44.3231 7.90163H44.1408L41.2236 16.5898H37.2352L33.4292 4.60059Z" fill="#0C54BD"/>
<path d="M56.9956 16.5898V4.60059H60.3002V16.5898H56.9956Z" fill="#0C54BD"/>
<path d="M63.3079 4.60059H66.6125V14.1828H74.4752V16.5669H63.3306V4.60059H63.3079Z" fill="#0C54BD"/>
<path d="M76.4111 4.60059H79.7158V14.1828H87.5785V16.5669H76.4339V4.60059H76.4111Z" fill="#0C54BD"/>
<path d="M112.171 12.3489H108.821V16.5898H105.516V4.60059H113.424C117.139 4.60059 118.233 6.57204 118.233 8.40596C118.233 9.73555 117.572 11.3173 115.635 11.9592L118.666 16.5898H114.951L112.171 12.3489ZM108.821 10.217H112.672C114.268 10.217 114.724 9.41461 114.724 8.58935C114.724 7.76409 114.245 7.0076 112.672 7.0076H108.821V10.217Z" fill="#0C54BD"/>
<path d="M130.837 14.2057H124.319L123.317 16.5898H119.761L125.55 4.60059H129.675L135.464 16.5898H131.886L130.837 14.2057ZM129.857 11.9821L127.67 7.0076H127.464L125.277 11.9821H129.857Z" fill="#0C54BD"/>
<path d="M136.988 4.60059H144.236C148.498 4.60059 151.232 6.64082 151.232 10.3774C151.232 14.114 148.475 16.5669 144.304 16.5669H137.011V4.60059H136.988ZM143.734 14.2057C146.219 14.2057 147.723 12.8761 147.723 10.4691C147.723 8.13087 146.082 7.0076 143.712 7.0076H140.27V14.2057H143.734Z" fill="#0C54BD"/>
<path d="M164.999 14.1828V16.5898H153.171V4.60059H164.999V7.0076H156.476V9.41461H163.814V11.6382H156.476V14.2057H164.999V14.1828Z" fill="#0C54BD"/>
<path d="M22.3455 3.83355L11.1728 0.0522461L0 3.83355V7.78182L8.24361 10.5712L0 13.3605V17.3088L11.1728 21.0901L22.3455 17.3088V13.3605L14.1019 10.5712L22.3455 7.78182V3.83355ZM19.2351 15.3346L11.1823 18.065L3.12952 15.3346L11.1823 12.6042L19.2351 15.3346ZM11.1728 8.53808L3.11998 5.80769L11.1728 3.07729L19.2255 5.80769L11.1728 8.53808Z" fill="#0C54BD"/>
</svg>
