<svg width="755" height="148" viewBox="0 0 755 148" fill="none" xmlns="http://www.w3.org/2000/svg">
<g opacity="0.1">
<g clip-path="url(#clip0)">
<path d="M642.385 84.2666H642.385V84.2543V63.454C642.385 44.0363 647.98 28.5027 661.075 17.7894C674.211 7.04123 695.067 1 725.903 1C748.058 1 766.975 4.73898 780.38 11.5548C793.396 18.1732 801.09 27.6116 801.746 39.2841H763.195C762.967 36.6915 761.848 34.5672 760.017 32.8697C757.989 30.9894 755.127 29.6658 751.744 28.7232C744.983 26.8396 735.776 26.3826 725.903 26.3826C711.626 26.3826 700.972 28.6851 693.907 34.9617C686.812 41.2647 683.566 51.3606 683.566 66.3503V84.7809C683.566 100.034 686.945 109.528 694.573 115.11C702.104 120.621 713.54 122.116 729.062 122.116C734.295 122.116 741.348 121.113 747.756 119.825C754.152 118.539 760.03 116.943 762.895 115.716L763.501 115.456V114.796V92.1531V91.1531H762.501H729.009V70.2465H801.785V137.727C785.373 142.102 754.93 146.182 729.326 146.182C695.938 146.182 674.103 141.11 660.684 130.917C647.344 120.784 642.124 105.426 642.385 84.2666Z" stroke="#1B1B1B" stroke-width="2"/>
<path d="M66.704 107.168L66.9089 107.898H67.6667H70.0364H70.7524L70.9831 107.22L105.507 5.73926H143.834L178.621 107.222L178.853 107.898H179.567H181.673H182.431L182.636 107.168L211.13 5.73926H247.71L204.638 141.442H160.013L126.803 42.336L126.574 41.6537H125.855H123.748H123.031L122.801 42.3337L89.329 141.442H44.7006L1.36905 5.73926H38.2098L66.704 107.168Z" stroke="#1B1B1B" stroke-width="2"/>
<path d="M273.247 141.442V5.73926H309.424V141.442H273.247Z" stroke="#1B1B1B" stroke-width="2"/>
<path d="M383.356 115.796H473.193V141.179H346.442V5.73926H382.356V114.796V115.796H383.356Z" stroke="#1B1B1B" stroke-width="2"/>
<path d="M534.751 115.796H624.587V141.179H497.836V5.73926H533.751V114.796V115.796H534.751Z" stroke="#1B1B1B" stroke-width="2"/>
</g>
</g>
<defs>
<clipPath id="clip0">
<rect width="1520" height="147.182" fill="white"/>
</clipPath>
</defs>
</svg>
